<?xml version="1.0" encoding="UTF-8" standalone="no"?>
<svg width="28px" height="27px" viewBox="0 0 28 27" version="1.1" xmlns="http://www.w3.org/2000/svg" xmlns:xlink="http://www.w3.org/1999/xlink" xmlns:sketch="http://www.bohemiancoding.com/sketch/ns">
    <!-- Generator: Sketch 3.1 (8751) - http://www.bohemiancoding.com/sketch -->
    <title>tamaño construccion</title>
    <desc>Created with Sketch.</desc>
    <defs></defs>
    <g id="Page-1" stroke="none" stroke-width="1" fill="none" fill-rule="evenodd" sketch:type="MSPage">
        <g id="Desktop-HD" sketch:type="MSArtboardGroup" transform="translate(-969.000000, -486.000000)" fill="#FFFFFF">
            <g id="tamaño-construccion" sketch:type="MSLayerGroup" transform="translate(970.000000, 487.000000)">
                <path d="M9.893,11.049 L4.834,5.989 L6.248,4.575 L11.307,9.634 L9.893,11.049" id="Fill-63" sketch:type="MSShapeGroup"></path>
                <path d="M2.596,6.743 L-0.234,2.025 L2.284,-0.492 L6.999,2.337 L6.866,5.34 L5.607,6.598 L2.596,6.743 L2.596,6.743 Z M2.284,2.336 L3.696,4.688 L4.74,4.637 L4.903,4.474 L4.949,3.438 L2.594,2.025 L2.284,2.336 L2.284,2.336 Z" id="Fill-64" sketch:type="MSShapeGroup"></path>
                <path d="M22.025,25.766 C20.956,25.766 19.952,25.35 19.197,24.594 C18.833,24.232 12.379,17.777 12.379,17.777 L13.793,16.363 C13.793,16.363 20.246,22.816 20.61,23.179 C21.368,23.937 22.683,23.936 23.439,23.18 C23.817,22.802 24.025,22.3 24.025,21.766 C24.025,21.232 23.817,20.73 23.439,20.352 C23.075,19.987 16.601,13.513 16.601,13.513 L18.015,12.099 C18.015,12.099 24.491,18.575 24.854,18.939 C25.609,19.693 26.025,20.697 26.025,21.766 C26.025,22.835 25.609,23.839 24.853,24.594 C24.098,25.35 23.093,25.766 22.025,25.766" id="Fill-65" sketch:type="MSShapeGroup"></path>
                <path d="M4.025,25.766 C2.956,25.766 1.953,25.35 1.197,24.594 C0.441,23.839 0.025,22.835 0.025,21.766 C0.025,20.698 0.441,19.693 1.197,18.938 L12.138,7.996 C12.063,7.584 12.025,7.172 12.025,6.766 C12.025,2.907 15.165,-0.234 19.025,-0.234 C20.004,-0.234 20.959,-0.031 21.862,0.37 L23.194,0.961 L18.439,5.716 L19.853,7.13 L24.627,2.356 L25.253,3.579 C25.765,4.58 26.025,5.652 26.025,6.766 C26.025,11.031 22.136,14.445 17.795,13.653 L6.853,24.594 C6.098,25.35 5.094,25.766 4.025,25.766 L4.025,25.766 Z M19.025,1.766 C16.268,1.766 14.025,4.009 14.025,6.766 C14.025,7.186 14.083,7.621 14.2,8.056 L14.349,8.613 L2.611,20.352 C2.233,20.73 2.025,21.232 2.025,21.766 C2.025,22.3 2.233,22.802 2.611,23.18 C3.367,23.936 4.683,23.936 5.439,23.18 L17.178,11.442 L17.735,11.592 C21.034,12.468 24.025,9.943 24.025,6.766 C24.025,6.463 23.997,6.163 23.944,5.868 L19.853,9.959 L15.611,5.716 L19.534,1.793 C19.366,1.775 19.196,1.766 19.025,1.766 L19.025,1.766 Z" id="Fill-66" sketch:type="MSShapeGroup"></path>
            </g>
        </g>
    </g>
</svg>