<?xml version="1.0" encoding="UTF-8" standalone="no"?>
<svg width="31px" height="25px" viewBox="0 0 31 25" version="1.1" xmlns="http://www.w3.org/2000/svg" xmlns:xlink="http://www.w3.org/1999/xlink" xmlns:sketch="http://www.bohemiancoding.com/sketch/ns">
    <!-- Generator: Sketch 3.1 (8751) - http://www.bohemiancoding.com/sketch -->
    <title>c. comercial</title>
    <desc>Created with Sketch.</desc>
    <defs></defs>
    <g id="Page-1" stroke="none" stroke-width="1" fill="none" fill-rule="evenodd" sketch:type="MSPage">
        <g id="Desktop-HD" sketch:type="MSArtboardGroup" transform="translate(-896.000000, -915.000000)" fill="#FFFFFF">
            <g id="c.-comercial" sketch:type="MSLayerGroup" transform="translate(896.000000, 916.000000)">
                <path d="M27.047,23.76 L21.047,23.76 L21.047,14.76 L19.047,14.76 L19.047,23.76 L3.047,23.76 L3.047,9.76 L5.047,9.76 L5.047,21.76 L17.047,21.76 L17.047,12.76 L23.047,12.76 L23.047,21.76 L25.047,21.76 L25.047,9.76 L27.047,9.76 L27.047,23.76" id="Fill-27" sketch:type="MSShapeGroup"></path>
                <path d="M7.047,12.76 L15.047,12.76 L15.047,19.76 L7.047,19.76 L7.047,12.76 Z M9.047,17.76 L13.047,17.76 L13.047,14.76 L9.047,14.76 L9.047,17.76 Z" id="Fill-28" sketch:type="MSShapeGroup"></path>
                <path d="M27.047,10.76 C25.393,10.76 24.047,9.415 24.047,7.76 L26.047,7.76 C26.047,8.312 26.495,8.76 27.047,8.76 C27.501,8.76 27.886,8.456 28.007,8.041 L25.547,4.76 L4.547,4.76 L2.087,8.041 C2.208,8.456 2.593,8.76 3.047,8.76 C3.599,8.76 4.047,8.312 4.047,7.76 L6.047,7.76 C6.047,9.415 4.701,10.76 3.047,10.76 C1.393,10.76 0.047,9.415 0.047,7.76 L0.047,7.427 L3.547,2.76 L26.547,2.76 L30.047,7.427 L30.047,7.76 C30.047,9.415 28.701,10.76 27.047,10.76" id="Fill-29" sketch:type="MSShapeGroup"></path>
                <path d="M23.047,10.76 C21.393,10.76 20.047,9.415 20.047,7.76 L22.047,7.76 C22.047,8.312 22.496,8.76 23.047,8.76 C23.599,8.76 24.047,8.312 24.047,7.76 L26.047,7.76 C26.047,9.415 24.701,10.76 23.047,10.76" id="Fill-30" sketch:type="MSShapeGroup"></path>
                <path d="M19.047,10.76 C17.393,10.76 16.047,9.415 16.047,7.76 L18.047,7.76 C18.047,8.312 18.496,8.76 19.047,8.76 C19.599,8.76 20.047,8.312 20.047,7.76 L22.047,7.76 C22.047,9.415 20.701,10.76 19.047,10.76" id="Fill-31" sketch:type="MSShapeGroup"></path>
                <path d="M15.047,10.76 C13.393,10.76 12.047,9.415 12.047,7.76 L14.047,7.76 C14.047,8.312 14.495,8.76 15.047,8.76 C15.599,8.76 16.047,8.312 16.047,7.76 L18.047,7.76 C18.047,9.415 16.701,10.76 15.047,10.76" id="Fill-32" sketch:type="MSShapeGroup"></path>
                <path d="M11.047,10.76 C9.393,10.76 8.047,9.415 8.047,7.76 L10.047,7.76 C10.047,8.312 10.496,8.76 11.047,8.76 C11.599,8.76 12.047,8.312 12.047,7.76 L14.047,7.76 C14.047,9.415 12.701,10.76 11.047,10.76" id="Fill-33" sketch:type="MSShapeGroup"></path>
                <path d="M7.047,10.76 C5.393,10.76 4.047,9.415 4.047,7.76 L6.047,7.76 C6.047,8.312 6.496,8.76 7.047,8.76 C7.599,8.76 8.047,8.312 8.047,7.76 L10.047,7.76 C10.047,9.415 8.701,10.76 7.047,10.76" id="Fill-34" sketch:type="MSShapeGroup"></path>
                <path d="M3.047,-0.24 L27.047,-0.24 L27.047,4.76 L3.047,4.76 L3.047,-0.24 Z M5.047,2.76 L25.047,2.76 L25.047,1.76 L5.047,1.76 L5.047,2.76 Z" id="Fill-35" sketch:type="MSShapeGroup"></path>
            </g>
        </g>
    </g>
</svg>