<?xml version="1.0" encoding="UTF-8" standalone="no"?>
<svg width="25px" height="27px" viewBox="0 0 25 27" version="1.1" xmlns="http://www.w3.org/2000/svg" xmlns:xlink="http://www.w3.org/1999/xlink" xmlns:sketch="http://www.bohemiancoding.com/sketch/ns">
    <!-- Generator: Sketch 3.1 (8751) - http://www.bohemiancoding.com/sketch -->
    <title>c. departamento</title>
    <desc>Created with Sketch.</desc>
    <defs></defs>
    <g id="Page-1" stroke="none" stroke-width="1" fill="none" fill-rule="evenodd" sketch:type="MSPage">
        <g id="Desktop-HD" sketch:type="MSArtboardGroup" transform="translate(-899.000000, -770.000000)" fill="#FFFFFF">
            <g id="c.-departamento" sketch:type="MSLayerGroup" transform="translate(899.000000, 771.000000)">
                <path d="M24.047,25.75 L13.047,25.75 L13.047,21.75 L11.047,21.75 L11.047,25.75 L0.047,25.75 L0.047,-0.25 L24.047,-0.25 L24.047,25.75 L24.047,25.75 Z M15.047,23.75 L22.047,23.75 L22.047,1.75 L2.047,1.75 L2.047,23.75 L9.047,23.75 L9.047,19.75 L15.047,19.75 L15.047,23.75 L15.047,23.75 Z" id="Fill-1" sketch:type="MSShapeGroup"></path>
                <path d="M10.047,15.75 L14.047,15.75 L14.047,17.75 L10.047,17.75 L10.047,15.75 Z" id="Fill-2" sketch:type="MSShapeGroup"></path>
                <path d="M10.047,11.75 L14.047,11.75 L14.047,13.75 L10.047,13.75 L10.047,11.75 Z" id="Fill-3" sketch:type="MSShapeGroup"></path>
                <path d="M16.047,19.75 L20.047,19.75 L20.047,21.75 L16.047,21.75 L16.047,19.75 Z" id="Fill-4" sketch:type="MSShapeGroup"></path>
                <path d="M16.047,15.75 L20.047,15.75 L20.047,17.75 L16.047,17.75 L16.047,15.75 Z" id="Fill-5" sketch:type="MSShapeGroup"></path>
                <path d="M16.047,11.75 L20.047,11.75 L20.047,13.75 L16.047,13.75 L16.047,11.75 Z" id="Fill-6" sketch:type="MSShapeGroup"></path>
                <path d="M4.047,19.75 L8.047,19.75 L8.047,21.75 L4.047,21.75 L4.047,19.75 Z" id="Fill-7" sketch:type="MSShapeGroup"></path>
                <path d="M4.047,15.75 L8.047,15.75 L8.047,17.75 L4.047,17.75 L4.047,15.75 Z" id="Fill-8" sketch:type="MSShapeGroup"></path>
                <path d="M4.047,11.75 L8.047,11.75 L8.047,13.75 L4.047,13.75 L4.047,11.75 Z" id="Fill-9" sketch:type="MSShapeGroup"></path>
                <path d="M10.047,7.75 L14.047,7.75 L14.047,9.75 L10.047,9.75 L10.047,7.75 Z" id="Fill-10" sketch:type="MSShapeGroup"></path>
                <path d="M16.047,7.75 L20.047,7.75 L20.047,9.75 L16.047,9.75 L16.047,7.75 Z" id="Fill-11" sketch:type="MSShapeGroup"></path>
                <path d="M4.047,7.75 L8.047,7.75 L8.047,9.75 L4.047,9.75 L4.047,7.75 Z" id="Fill-12" sketch:type="MSShapeGroup"></path>
                <path d="M10.047,3.75 L14.047,3.75 L14.047,5.75 L10.047,5.75 L10.047,3.75 Z" id="Fill-13" sketch:type="MSShapeGroup"></path>
                <path d="M16.047,3.75 L20.047,3.75 L20.047,5.75 L16.047,5.75 L16.047,3.75 Z" id="Fill-14" sketch:type="MSShapeGroup"></path>
                <path d="M4.047,3.75 L8.047,3.75 L8.047,5.75 L4.047,5.75 L4.047,3.75 Z" id="Fill-15" sketch:type="MSShapeGroup"></path>
            </g>
        </g>
    </g>
</svg>