<?xml version="1.0" encoding="UTF-8" standalone="no"?>
<svg width="25px" height="23px" viewBox="0 0 25 23" version="1.1" xmlns="http://www.w3.org/2000/svg" xmlns:xlink="http://www.w3.org/1999/xlink" xmlns:sketch="http://www.bohemiancoding.com/sketch/ns">
    <!-- Generator: Sketch 3.1 (8751) - http://www.bohemiancoding.com/sketch -->
    <title>Basura</title>
    <desc>Created with Sketch.</desc>
    <defs></defs>
    <g id="Page-1" stroke="none" stroke-width="1" fill="none" fill-rule="evenodd" sketch:type="MSPage">
        <g id="Desktop-HD" sketch:type="MSArtboardGroup" transform="translate(-970.000000, -706.000000)" fill="#FFFFFF">
            <g id="Basura" sketch:type="MSLayerGroup" transform="translate(971.000000, 707.000000)">
                <path d="M19.895,7.745 C17.689,7.745 15.895,5.951 15.895,3.745 C15.895,1.539 17.689,-0.255 19.895,-0.255 C22.101,-0.255 23.896,1.539 23.896,3.745 C23.896,5.951 22.101,7.745 19.895,7.745 L19.895,7.745 Z M19.895,1.745 C18.793,1.745 17.896,2.643 17.896,3.745 C17.896,4.848 18.793,5.745 19.895,5.745 C20.998,5.745 21.895,4.848 21.895,3.745 C21.895,2.643 20.998,1.745 19.895,1.745 L19.895,1.745 Z" id="Fill-87" sketch:type="MSShapeGroup"></path>
                <path d="M12.45,1.759 C13.779,1.759 15.018,2.626 15.412,3.988 L17.364,10.745 L14.896,10.745 L13.795,6.445 L7.146,9.197 L8.896,19.386 L8.896,19.745 L6.395,19.745 L5.025,11.534 L4.396,19.745 L1.895,19.745 L1.895,19.386 L2.896,7.745 C3.043,6.081 3.895,5.045 5.195,4.445 C5.837,4.154 8.887,2.938 11.316,1.976 C11.69,1.828 12.073,1.759 12.45,1.759 M12.45,-0.241 C11.809,-0.241 11.18,-0.121 10.58,0.117 C7.003,1.533 4.913,2.377 4.368,2.625 C2.3,3.579 1.106,5.287 0.903,7.568 L-0.097,19.215 L-0.104,19.3 L-0.104,21.745 L10.895,21.745 L10.895,19.216 L9.388,10.434 L12.429,9.175 L13.343,12.745 L20.025,12.745 L17.333,3.433 C16.708,1.27 14.7,-0.241 12.45,-0.241" id="Fill-88" sketch:type="MSShapeGroup"></path>
                <path d="M19.895,21.745 L15.895,21.745 C14.241,21.745 12.895,20.4 12.895,18.745 L12.895,10.745 L22.895,10.745 L22.895,18.745 C22.895,20.4 21.55,21.745 19.895,21.745 L19.895,21.745 Z M14.896,12.745 L14.896,18.745 C14.896,19.297 15.344,19.745 15.895,19.745 L19.895,19.745 C20.447,19.745 20.896,19.297 20.896,18.745 L20.896,12.745 L14.896,12.745 L14.896,12.745 Z" id="Fill-89" sketch:type="MSShapeGroup"></path>
            </g>
        </g>
    </g>
</svg>