<?xml version="1.0" encoding="UTF-8" standalone="no"?>
<svg width="26px" height="27px" viewBox="0 0 26 27" version="1.1" xmlns="http://www.w3.org/2000/svg" xmlns:xlink="http://www.w3.org/1999/xlink" xmlns:sketch="http://www.bohemiancoding.com/sketch/ns">
    <!-- Generator: Sketch 3.1 (8751) - http://www.bohemiancoding.com/sketch -->
    <title>Caseta de vigilancia</title>
    <desc>Created with Sketch.</desc>
    <defs></defs>
    <g id="Page-1" stroke="none" stroke-width="1" fill="none" fill-rule="evenodd" sketch:type="MSPage">
        <g id="Desktop-HD" sketch:type="MSArtboardGroup" transform="translate(-970.000000, -571.000000)" fill="#FFFFFF">
            <g id="Caseta-de-vigilancia" sketch:type="MSLayerGroup" transform="translate(970.000000, 571.000000)">
                <path d="M23.396,19.067 L20.396,19.067 L20.396,10.067 L23.396,10.067 C24.498,10.067 25.395,10.964 25.395,12.067 L25.395,17.067 C25.395,18.169 24.498,19.067 23.396,19.067 L23.396,19.067 Z M22.395,17.067 L23.395,17.067 L23.395,12.067 L22.395,12.067 L22.395,17.067 Z" id="Fill-67" sketch:type="MSShapeGroup"></path>
                <path d="M17.396,14.567 C17.396,15.395 16.724,16.067 15.896,16.067 C15.067,16.067 14.396,15.395 14.396,14.567 C14.396,13.738 15.067,13.067 15.896,13.067 C16.724,13.067 17.396,13.738 17.396,14.567" id="Fill-68" sketch:type="MSShapeGroup"></path>
                <path d="M10.395,14.567 C10.395,15.395 9.724,16.067 8.895,16.067 C8.067,16.067 7.395,15.395 7.395,14.567 C7.395,13.738 8.067,13.067 8.895,13.067 C9.724,13.067 10.395,13.738 10.395,14.567" id="Fill-69" sketch:type="MSShapeGroup"></path>
                <path d="M20.396,22.067 L12.896,22.067 L12.896,20.067 L20.396,20.067 C21.498,20.067 22.395,19.169 22.395,18.067 L24.395,18.067 C24.395,20.273 22.601,22.067 20.396,22.067" id="Fill-70" sketch:type="MSShapeGroup"></path>
                <path d="M14.396,20.567 C14.396,21.395 13.724,22.067 12.896,22.067 C12.067,22.067 11.396,21.395 11.396,20.567 C11.396,19.738 12.067,19.067 12.896,19.067 C13.724,19.067 14.396,19.738 14.396,20.567" id="Fill-71" sketch:type="MSShapeGroup"></path>
                <path d="M3.395,12.785 L1.395,12.785 L1.395,11.067 C1.395,5.001 6.33,0.067 12.395,0.067 C18.461,0.067 23.396,5.001 23.396,11.067 L21.395,11.067 C21.395,6.104 17.358,2.067 12.395,2.067 C7.433,2.067 3.395,6.104 3.395,11.067 L3.395,12.785" id="Fill-72" sketch:type="MSShapeGroup"></path>
                <path d="M12.395,26.067 C7.892,26.067 3.922,23 2.749,18.698 C1.338,18.06 0.395,16.643 0.395,15.067 C0.395,13.619 1.26,12.205 2.458,11.557 C2.566,10.991 2.813,10.515 3.197,10.132 C4.296,9.039 6.184,9.054 8.187,9.055 C10.24,9.068 12.372,9.074 13.485,7.965 C14.098,7.356 14.396,6.407 14.396,5.067 L16.395,5.067 C16.395,6.94 15.891,8.392 14.896,9.383 C13.196,11.075 10.513,11.068 8.18,11.055 C6.749,11.058 5.118,11.042 4.608,11.55 C4.518,11.641 4.395,11.813 4.395,12.25 L4.395,13.017 L3.654,13.216 C3.06,13.376 2.396,14.175 2.396,15.067 C2.396,15.954 2.999,16.741 3.862,16.981 L4.447,17.144 L4.573,17.737 C5.352,21.405 8.642,24.067 12.395,24.067 C15.02,24.067 17.48,22.774 18.975,20.609 L20.621,21.745 C18.753,24.451 15.678,26.067 12.395,26.067" id="Fill-73" sketch:type="MSShapeGroup"></path>
                <path d="M20.492,11.215 C20.356,11.125 19.816,11.049 19.458,10.998 C17.689,10.75 14.396,10.287 14.396,5.067 L16.395,5.067 C16.395,8.549 18.019,8.777 19.736,9.018 C20.796,9.167 22.395,9.392 22.395,11.067 L20.396,11.067 C20.407,11.116 20.453,11.19 20.492,11.215" id="Fill-74" sketch:type="MSShapeGroup"></path>
            </g>
        </g>
    </g>
</svg>