<?xml version="1.0" encoding="UTF-8" standalone="no"?>
<svg width="29px" height="28px" viewBox="0 0 29 28" version="1.1" xmlns="http://www.w3.org/2000/svg" xmlns:xlink="http://www.w3.org/1999/xlink" xmlns:sketch="http://www.bohemiancoding.com/sketch/ns">
    <!-- Generator: Sketch 3.1 (8751) - http://www.bohemiancoding.com/sketch -->
    <title>iluminación</title>
    <desc>Created with Sketch.</desc>
    <defs></defs>
    <g id="Page-1" stroke="none" stroke-width="1" fill="none" fill-rule="evenodd" sketch:type="MSPage">
        <g id="Desktop-HD" sketch:type="MSArtboardGroup" transform="translate(-968.000000, -659.000000)" fill="#FFFFFF">
            <g id="iluminación" sketch:type="MSLayerGroup" transform="translate(969.000000, 660.000000)">
                <path d="M9.895,19.168 L17.895,19.168 L17.895,25.168 L9.895,25.168 L9.895,19.168 Z M11.895,23.168 L15.895,23.168 L15.895,21.168 L11.895,21.168 L11.895,23.168 Z" id="Fill-78" sketch:type="MSShapeGroup"></path>
                <path d="M17.895,21.168 L9.895,21.168 L9.895,19.923 C9.895,18.423 9.239,17.009 8.096,16.045 C5.748,14.066 4.58,11.054 4.971,7.989 C5.485,3.949 8.8,0.684 12.851,0.226 C15.413,-0.062 17.981,0.75 19.89,2.455 C21.8,4.161 22.896,6.608 22.896,9.168 C22.896,11.758 21.777,14.223 19.827,15.931 C18.581,17.023 17.895,18.443 17.895,19.929 L17.895,21.168 L17.895,21.168 Z M11.855,19.168 L15.939,19.168 C16.144,17.396 17.056,15.701 18.509,14.428 C20.025,13.098 20.895,11.181 20.895,9.168 C20.895,7.177 20.043,5.273 18.558,3.946 C17.052,2.601 15.104,1.981 13.076,2.215 C9.929,2.57 7.354,5.105 6.955,8.242 C6.65,10.631 7.559,12.976 9.385,14.515 C10.787,15.697 11.663,17.362 11.855,19.168 L11.855,19.168 Z" id="Fill-79" sketch:type="MSShapeGroup"></path>
                <path d="M24.895,9.168 L27.895,9.168 L27.895,11.168 L24.895,11.168 L24.895,9.168 Z" id="Fill-80" sketch:type="MSShapeGroup"></path>
                <path d="M-0.105,9.168 L2.895,9.168 L2.895,11.168 L-0.105,11.168 L-0.105,9.168 Z" id="Fill-81" sketch:type="MSShapeGroup"></path>
                <path d="M23.088,20.774 L20.967,18.653 L22.381,17.239 L24.502,19.36 L23.088,20.774" id="Fill-82" sketch:type="MSShapeGroup"></path>
                <path d="M5.41,3.096 L3.289,0.975 L4.703,-0.439 L6.824,1.682 L5.41,3.096" id="Fill-83" sketch:type="MSShapeGroup"></path>
                <path d="M4.703,20.774 L3.289,19.36 L5.41,17.239 L6.824,18.653 L4.703,20.774" id="Fill-84" sketch:type="MSShapeGroup"></path>
                <path d="M22.381,3.096 L20.967,1.682 L23.088,-0.439 L24.502,0.975 L22.381,3.096" id="Fill-85" sketch:type="MSShapeGroup"></path>
                <path d="M15.895,24.168 C15.895,25.272 15,26.168 13.896,26.168 C12.791,26.168 11.895,25.272 11.895,24.168 L15.895,24.168" id="Fill-86" sketch:type="MSShapeGroup"></path>
            </g>
        </g>
    </g>
</svg>