<?xml version="1.0" encoding="UTF-8" standalone="no"?>
<svg width="28px" height="25px" viewBox="0 0 28 25" version="1.1" xmlns="http://www.w3.org/2000/svg" xmlns:xlink="http://www.w3.org/1999/xlink" xmlns:sketch="http://www.bohemiancoding.com/sketch/ns">
    <!-- Generator: Sketch 3.1 (8751) - http://www.bohemiancoding.com/sketch -->
    <title>área de espera</title>
    <desc>Created with Sketch.</desc>
    <defs></defs>
    <g id="Page-1" stroke="none" stroke-width="1" fill="none" fill-rule="evenodd" sketch:type="MSPage">
        <g id="Desktop-HD" sketch:type="MSArtboardGroup" transform="translate(-969.000000, -619.000000)" fill="#FFFFFF">
            <g id="área-de-espera" sketch:type="MSLayerGroup" transform="translate(970.000000, 620.000000)">
                <path d="M11.895,11.88 L13.895,11.88 L13.895,22.88 L11.895,22.88 L11.895,11.88 Z" id="Fill-75" sketch:type="MSShapeGroup"></path>
                <path d="M12.995,23.88 L12.366,23.88 L12.071,23.568 C12.069,23.569 10.213,21.88 3.896,21.88 L3.114,21.88 L-0.386,7.88 L0.896,7.88 C7.432,7.88 11.453,9.839 12.893,10.691 C14.33,9.837 18.338,7.88 24.896,7.88 L26.177,7.88 L22.677,21.88 L21.896,21.88 C15.571,21.88 13.721,23.569 13.703,23.586 L13.413,23.861 L12.995,23.88 L12.995,23.88 Z M4.679,19.888 C9.494,19.993 11.876,21.051 12.894,21.703 C13.913,21.05 16.294,19.992 21.112,19.888 L23.607,9.907 C16.959,10.197 13.525,12.658 13.49,12.684 L12.896,13.119 L12.304,12.686 C12.267,12.66 8.809,10.199 2.183,9.908 L4.679,19.888 L4.679,19.888 Z" id="Fill-76" sketch:type="MSShapeGroup"></path>
                <path d="M12.896,11.88 C9.587,11.88 6.896,9.188 6.896,5.88 C6.896,2.571 9.587,-0.12 12.896,-0.12 C16.204,-0.12 18.896,2.571 18.896,5.88 C18.896,9.188 16.204,11.88 12.896,11.88 L12.896,11.88 Z M12.896,1.88 C10.689,1.88 8.895,3.674 8.895,5.88 C8.895,8.086 10.689,9.88 12.896,9.88 C15.101,9.88 16.895,8.086 16.895,5.88 C16.895,3.674 15.101,1.88 12.896,1.88 L12.896,1.88 Z" id="Fill-77" sketch:type="MSShapeGroup"></path>
            </g>
        </g>
    </g>
</svg>