<?xml version="1.0" encoding="UTF-8" standalone="no"?>
<svg width="25px" height="25px" viewBox="0 0 25 25" version="1.1" xmlns="http://www.w3.org/2000/svg" xmlns:xlink="http://www.w3.org/1999/xlink" xmlns:sketch="http://www.bohemiancoding.com/sketch/ns">
    <!-- Generator: Sketch 3.1 (8751) - http://www.bohemiancoding.com/sketch -->
    <title>c. oficina</title>
    <desc>Created with Sketch.</desc>
    <defs></defs>
    <g id="Page-1" stroke="none" stroke-width="1" fill="none" fill-rule="evenodd" sketch:type="MSPage">
        <g id="Desktop-HD" sketch:type="MSArtboardGroup" transform="translate(-901.000000, -824.000000)" fill="#FFFFFF">
            <g id="c.-oficina" sketch:type="MSLayerGroup" transform="translate(901.000000, 824.000000)">
                <path d="M24.047,24.158 L13.047,24.158 L13.047,18.158 L11.047,18.158 L11.047,24.158 L0.047,24.158 L0.047,5.515 L12.047,0.059 L24.047,5.515 L24.047,24.158 L24.047,24.158 Z M15.047,22.158 L22.047,22.158 L22.047,6.802 L12.047,2.257 L2.047,6.802 L2.047,22.158 L9.047,22.158 L9.047,16.158 L15.047,16.158 L15.047,22.158 L15.047,22.158 Z" id="Fill-16" sketch:type="MSShapeGroup"></path>
                <path d="M10.047,12.158 L14.047,12.158 L14.047,14.158 L10.047,14.158 L10.047,12.158 Z" id="Fill-17" sketch:type="MSShapeGroup"></path>
                <path d="M10.047,8.158 L14.047,8.158 L14.047,10.158 L10.047,10.158 L10.047,8.158 Z" id="Fill-18" sketch:type="MSShapeGroup"></path>
                <path d="M16.047,16.158 L20.047,16.158 L20.047,18.158 L16.047,18.158 L16.047,16.158 Z" id="Fill-19" sketch:type="MSShapeGroup"></path>
                <path d="M16.047,12.158 L20.047,12.158 L20.047,14.158 L16.047,14.158 L16.047,12.158 Z" id="Fill-20" sketch:type="MSShapeGroup"></path>
                <path d="M16.047,8.158 L20.047,8.158 L20.047,10.158 L16.047,10.158 L16.047,8.158 Z" id="Fill-21" sketch:type="MSShapeGroup"></path>
                <path d="M4.047,16.158 L8.047,16.158 L8.047,18.158 L4.047,18.158 L4.047,16.158 Z" id="Fill-22" sketch:type="MSShapeGroup"></path>
                <path d="M4.047,12.158 L8.047,12.158 L8.047,14.158 L4.047,14.158 L4.047,12.158 Z" id="Fill-23" sketch:type="MSShapeGroup"></path>
                <path d="M4.047,8.158 L8.047,8.158 L8.047,10.158 L4.047,10.158 L4.047,8.158 Z" id="Fill-24" sketch:type="MSShapeGroup"></path>
            </g>
        </g>
    </g>
</svg>