<?xml version="1.0" encoding="UTF-8" standalone="no"?>
<svg width="24px" height="29px" viewBox="0 0 24 29" version="1.1" xmlns="http://www.w3.org/2000/svg" xmlns:xlink="http://www.w3.org/1999/xlink" xmlns:sketch="http://www.bohemiancoding.com/sketch/ns">
    <!-- Generator: Sketch 3.1 (8751) - http://www.bohemiancoding.com/sketch -->
    <title>e. venta</title>
    <desc>Created with Sketch.</desc>
    <defs></defs>
    <g id="Page-1" stroke="none" stroke-width="1" fill="none" fill-rule="evenodd" sketch:type="MSPage">
        <g id="Desktop-HD" sketch:type="MSArtboardGroup" transform="translate(-1151.000000, -850.000000)" fill="#FFFFFF">
            <g id="e.-venta" sketch:type="MSLayerGroup" transform="translate(1152.000000, 851.000000)">
                <path d="M6.264,20.63 C4.553,20.63 2.979,19.271 2.827,17.663 C2.688,16.111 3.576,14.833 4.701,13.853 C4.665,13.809 4.63,13.768 4.598,13.732 C4.452,13.569 4.362,13.362 4.344,13.143 C4.264,12.135 3.903,11.618 3.887,11.596 C3.691,11.322 3.641,10.96 3.764,10.645 C3.886,10.332 4.153,10.092 4.483,10.022 C5.557,9.794 6.432,8.517 6.678,8.044 C6.822,7.769 7.086,7.574 7.393,7.52 C7.695,7.467 8.013,7.556 8.243,7.766 C8.922,8.39 10.846,8.17 11.669,7.967 C12.13,7.855 12.605,8.078 12.81,8.504 C13.015,8.931 12.894,9.442 12.519,9.731 C12.153,10.012 10.816,11.705 9.786,13.111 C9.67,13.268 9.51,13.389 9.327,13.458 C8.105,13.913 4.653,15.627 4.818,17.479 C4.873,18.057 5.589,18.63 6.264,18.63 C7.372,18.63 8.656,17.52 9.592,16.71 C9.914,16.431 10.204,16.183 10.449,16.003 C10.87,15.674 11.47,15.446 12.167,15.181 C13.416,14.707 14.97,14.115 16.334,12.652 C17.229,11.693 17.774,10.103 18.301,8.566 C18.978,6.593 19.677,4.553 21.225,3.498 L22.352,5.15 C21.354,5.831 20.789,7.474 20.193,9.215 C19.598,10.95 18.982,12.745 17.797,14.016 C16.116,15.819 14.167,16.56 12.877,17.05 C12.355,17.25 11.861,17.437 11.656,17.597 C11.424,17.768 11.177,17.983 10.901,18.222 C9.726,19.239 8.117,20.63 6.264,20.63 L6.264,20.63 Z M6.303,12.655 C6.313,12.667 6.323,12.679 6.332,12.691 C7.16,12.201 7.922,11.865 8.345,11.694 C8.624,11.316 9.051,10.746 9.506,10.166 C8.965,10.137 8.406,10.045 7.894,9.848 C7.488,10.398 6.869,11.079 6.049,11.539 C6.154,11.85 6.247,12.222 6.303,12.655 L6.303,12.655 Z" id="Fill-36" sketch:type="MSShapeGroup"></path>
                <path d="M2.752,17.82 C1.266,15.398 -0.272,10.882 -0.272,10.186 C-0.272,8.547 3.044,4.022 3.719,3.452 C4.173,3.068 5.427,2.613 8.631,1.503 C10.404,0.89 12.831,0.05 13.327,-0.265 L14.401,1.422 C13.753,1.834 12.036,2.442 9.286,3.394 C7.63,3.966 5.363,4.751 4.976,5.005 C4.371,5.524 1.91,9.212 1.735,10.156 C1.895,10.878 3.162,14.662 4.458,16.773 L2.752,17.82" id="Fill-37" sketch:type="MSShapeGroup"></path>
                <path d="M7.758,27.579 C4.174,27.579 1.258,24.663 1.258,21.079 C1.258,19.424 1.88,17.848 3.01,16.639 C3.386,16.234 4.021,16.213 4.423,16.591 C4.827,16.968 4.848,17.601 4.471,18.004 C3.689,18.841 3.258,19.933 3.258,21.079 C3.258,23.56 5.277,25.579 7.758,25.579 C10.24,25.579 12.258,23.56 12.258,21.079 C12.258,19.701 11.639,18.418 10.56,17.557 C10.128,17.212 10.057,16.584 10.401,16.152 C10.745,15.72 11.374,15.649 11.806,15.993 C13.365,17.235 14.258,19.088 14.258,21.079 C14.258,24.663 11.342,27.579 7.758,27.579" id="Fill-38" sketch:type="MSShapeGroup"></path>
            </g>
        </g>
    </g>
</svg>