<?xml version="1.0" encoding="UTF-8" standalone="no"?>
<svg width="35px" height="16px" viewBox="0 0 35 16" version="1.1" xmlns="http://www.w3.org/2000/svg" xmlns:xlink="http://www.w3.org/1999/xlink" xmlns:sketch="http://www.bohemiancoding.com/sketch/ns">
    <!-- Generator: Sketch 3.1 (8751) - http://www.bohemiancoding.com/sketch -->
    <title>Estacionamiento</title>
    <desc>Created with Sketch.</desc>
    <defs></defs>
    <g id="Page-1" stroke="none" stroke-width="1" fill="none" fill-rule="evenodd" sketch:type="MSPage">
        <g id="Desktop-HD" sketch:type="MSArtboardGroup" transform="translate(-967.000000, -535.000000)" fill="#FFFFFF">
            <g id="Estacionamiento" sketch:type="MSLayerGroup" transform="translate(968.000000, 535.000000)">
                <path d="M33.009,12.086 C32.64,12.229 32.28,12.464 31.902,12.497 C31.146,12.562 30.382,12.516 29.63,12.516 C29.255,15.002 27.601,16.041 25.873,15.958 C24.135,15.875 22.999,14.725 22.558,12.559 L10.192,12.559 C9.746,14.776 8.553,15.937 6.729,15.961 C4.848,15.985 3.653,14.864 3.152,12.516 C2.401,12.516 1.62,12.561 0.849,12.497 C0.471,12.465 0.11,12.229 -0.258,12.086 L-0.258,6.024 C0.088,5.884 0.428,5.645 0.781,5.624 C1.738,5.567 2.702,5.586 3.661,5.612 C4.104,5.624 4.377,5.462 4.634,5.105 C5.528,3.869 6.471,2.668 7.366,1.433 C8.041,0.503 8.908,0.051 10.069,0.061 C12.901,0.086 15.733,0.083 18.566,0.063 C19.697,0.055 20.546,0.504 21.205,1.408 C22.119,2.661 23.041,3.907 24.006,5.12 C24.2,5.364 24.591,5.568 24.901,5.582 C26.105,5.635 27.313,5.604 28.52,5.605 C31.083,5.607 32.492,6.832 32.865,9.376 C32.896,9.592 32.96,9.803 33.009,10.016 L33.009,12.086 L33.009,12.086 Z M31.669,11.17 C31.616,10.629 31.586,10.214 31.533,9.802 C31.261,7.676 30.426,6.946 28.275,6.946 L1.979,6.946 L1.152,6.946 L1.152,11.172 C1.767,11.172 2.33,11.147 2.89,11.18 C3.31,11.204 3.535,11.048 3.767,10.69 C5.188,8.502 8.179,8.541 9.636,10.722 C9.78,10.938 10.114,11.151 10.361,11.153 C14.374,11.18 18.388,11.178 22.401,11.155 C22.634,11.154 22.953,10.974 23.086,10.778 C24.631,8.498 27.507,8.482 29.045,10.752 C29.165,10.93 29.388,11.137 29.576,11.151 C30.232,11.2 30.894,11.17 31.669,11.17 L31.669,11.17 Z M13.584,1.448 C12.227,1.448 10.929,1.432 9.631,1.462 C9.384,1.467 9.057,1.588 8.91,1.77 C7.937,2.983 7.002,4.228 5.982,5.557 L13.584,5.557 L13.584,1.448 L13.584,1.448 Z M22.609,5.575 C21.623,4.268 20.739,3.068 19.816,1.899 C19.649,1.687 19.328,1.483 19.072,1.475 C17.73,1.433 16.386,1.456 15.03,1.456 L15.03,5.575 L22.609,5.575 L22.609,5.575 Z M4.613,12.531 C4.615,13.694 5.492,14.586 6.644,14.597 C7.82,14.608 8.753,13.689 8.752,12.518 C8.752,11.351 7.807,10.429 6.631,10.448 C5.484,10.466 4.611,11.367 4.613,12.531 L4.613,12.531 Z M26.062,14.597 C27.22,14.603 28.12,13.727 28.137,12.575 C28.156,11.373 27.272,10.455 26.09,10.449 C24.947,10.443 24.018,11.342 23.998,12.473 C23.978,13.649 24.893,14.591 26.062,14.597 L26.062,14.597 Z" id="Fill-90" sketch:type="MSShapeGroup"></path>
            </g>
        </g>
    </g>
</svg>