<?xml version="1.0" encoding="UTF-8" standalone="no"?>
<svg width="27px" height="21px" viewBox="0 0 27 21" version="1.1" xmlns="http://www.w3.org/2000/svg" xmlns:xlink="http://www.w3.org/1999/xlink" xmlns:sketch="http://www.bohemiancoding.com/sketch/ns">
    <!-- Generator: Sketch 3.1 (8751) - http://www.bohemiancoding.com/sketch -->
    <title>e. preventa</title>
    <desc>Created with Sketch.</desc>
    <defs></defs>
    <g id="Page-1" stroke="none" stroke-width="1" fill="none" fill-rule="evenodd" sketch:type="MSPage">
        <g id="Desktop-HD" sketch:type="MSArtboardGroup" transform="translate(-1151.000000, -905.000000)" fill="#FFFFFF">
            <g id="e.-preventa" sketch:type="MSLayerGroup" transform="translate(1152.000000, 906.000000)">
                <path d="M-0.418,-0.24 L25.582,-0.24 L25.582,19.76 L-0.418,19.76 L-0.418,-0.24 Z M20.314,17.76 L23.582,17.76 L23.582,1.76 L1.582,1.76 L1.582,17.76 L4.851,17.76 C5.196,17.163 5.843,16.76 6.582,16.76 C7.321,16.76 7.968,17.163 8.314,17.76 L16.851,17.76 C17.196,17.163 17.843,16.76 18.582,16.76 C19.321,16.76 19.968,17.163 20.314,17.76 L20.314,17.76 Z" id="Fill-39" sketch:type="MSShapeGroup"></path>
                <path d="M8.582,11.76 C6.376,11.76 4.582,9.966 4.582,7.76 C4.582,5.555 6.376,3.76 8.582,3.76 C10.788,3.76 12.582,5.555 12.582,7.76 C12.582,9.966 10.788,11.76 8.582,11.76 L8.582,11.76 Z M8.582,5.76 C7.48,5.76 6.582,6.657 6.582,7.76 C6.582,8.863 7.48,9.76 8.582,9.76 C9.685,9.76 10.582,8.863 10.582,7.76 C10.582,6.657 9.685,5.76 8.582,5.76 L8.582,5.76 Z" id="Fill-40" sketch:type="MSShapeGroup"></path>
                <path d="M13.582,14.76 L11.582,14.76 C11.582,13.106 10.236,11.76 8.582,11.76 C6.928,11.76 5.582,13.106 5.582,14.76 L3.582,14.76 C3.582,12.004 5.825,9.76 8.582,9.76 C11.339,9.76 13.582,12.004 13.582,14.76" id="Fill-41" sketch:type="MSShapeGroup"></path>
                <path d="M15.582,6.76 L21.582,6.76 L21.582,8.76 L15.582,8.76 L15.582,6.76 Z" id="Fill-42" sketch:type="MSShapeGroup"></path>
                <path d="M15.582,10.76 L21.582,10.76 L21.582,12.76 L15.582,12.76 L15.582,10.76 Z" id="Fill-43" sketch:type="MSShapeGroup"></path>
            </g>
        </g>
    </g>
</svg>