<?xml version="1.0" encoding="UTF-8" standalone="no"?>
<svg width="27px" height="24px" viewBox="0 0 27 24" version="1.1" xmlns="http://www.w3.org/2000/svg" xmlns:xlink="http://www.w3.org/1999/xlink" xmlns:sketch="http://www.bohemiancoding.com/sketch/ns">
    <!-- Generator: Sketch 3.1 (8751) - http://www.bohemiancoding.com/sketch -->
    <title>e. vendido</title>
    <desc>Created with Sketch.</desc>
    <defs></defs>
    <g id="Page-1" stroke="none" stroke-width="1" fill="none" fill-rule="evenodd" sketch:type="MSPage">
        <g id="Desktop-HD" sketch:type="MSArtboardGroup" transform="translate(-1154.000000, -809.000000)" fill="#FFFFFF">
            <g id="e.-vendido" sketch:type="MSLayerGroup" transform="translate(1155.000000, 809.000000)">
                <path d="M-0.418,3.158 L25.582,3.158 L25.582,23.158 L-0.418,23.158 L-0.418,3.158 Z M1.582,21.158 L23.582,21.158 L23.582,5.158 L1.582,5.158 L1.582,21.158 Z" id="Fill-44" sketch:type="MSShapeGroup"></path>
                <path d="M16.582,4.158 L14.582,4.158 C14.582,3.055 13.685,2.158 12.582,2.158 C11.479,2.158 10.582,3.055 10.582,4.158 L8.582,4.158 C8.582,1.953 10.376,0.158 12.582,0.158 C14.788,0.158 16.582,1.953 16.582,4.158" id="Fill-45" sketch:type="MSShapeGroup"></path>
                <path d="M0.582,14.158 L24.582,14.158 L24.582,16.158 L0.582,16.158 L0.582,14.158 Z" id="Fill-46" sketch:type="MSShapeGroup"></path>
                <path d="M13.582,12.158 C13.582,12.71 13.135,13.158 12.582,13.158 C12.03,13.158 11.582,12.71 11.582,12.158 C11.582,11.606 12.03,11.158 12.582,11.158 C13.135,11.158 13.582,11.606 13.582,12.158" id="Fill-47" sketch:type="MSShapeGroup"></path>
            </g>
        </g>
    </g>
</svg>